<svg width="34" height="34" viewBox="0 0 34 34" fill="none" xmlns="http://www.w3.org/2000/svg">
<path d="M20.125 33.6667H13.875C13.4583 33.6667 13.0972 33.5278 12.7917 33.25C12.4861 32.9723 12.3055 32.625 12.25 32.2084L11.75 28.3334C11.3889 28.1945 11.0483 28.0278 10.7283 27.8334C10.4083 27.6389 10.0961 27.4306 9.79166 27.2084L6.16666 28.7084C5.77777 28.8473 5.38888 28.8612 4.99999 28.75C4.6111 28.6389 4.30555 28.4028 4.08333 28.0417L0.999993 22.6667C0.77777 22.3056 0.708326 21.9167 0.791659 21.5C0.874993 21.0834 1.08333 20.75 1.41666 20.5L4.54166 18.125C4.51388 17.9306 4.49999 17.7428 4.49999 17.5617V16.4384C4.49999 16.2573 4.51388 16.0695 4.54166 15.875L1.41666 13.5C1.08333 13.25 0.874993 12.9167 0.791659 12.5C0.708326 12.0834 0.77777 11.6945 0.999993 11.3334L4.08333 5.95837C4.27777 5.56949 4.5761 5.32615 4.97833 5.22837C5.38055 5.1306 5.77666 5.15171 6.16666 5.29171L9.79166 6.79171C10.0972 6.56949 10.4167 6.36115 10.75 6.16671C11.0833 5.97226 11.4167 5.8056 11.75 5.66671L12.25 1.79171C12.3055 1.37504 12.4861 1.02782 12.7917 0.750041C13.0972 0.472263 13.4583 0.333374 13.875 0.333374H20.125C20.5417 0.333374 20.9028 0.472263 21.2083 0.750041C21.5139 1.02782 21.6944 1.37504 21.75 1.79171L22.25 5.66671C22.6111 5.8056 22.9517 5.97226 23.2717 6.16671C23.5917 6.36115 23.9039 6.56949 24.2083 6.79171L27.8333 5.29171C28.2222 5.15282 28.6111 5.13893 29 5.25004C29.3889 5.36115 29.6944 5.59726 29.9167 5.95837L33 11.3334C33.2222 11.6945 33.2917 12.0834 33.2083 12.5C33.125 12.9167 32.9167 13.25 32.5833 13.5L29.4583 15.875C29.4861 16.0695 29.5 16.2573 29.5 16.4384V17.5617C29.5 17.7428 29.4722 17.9306 29.4167 18.125L32.5417 20.5C32.875 20.75 33.0833 21.0834 33.1667 21.5C33.25 21.9167 33.1805 22.3056 32.9583 22.6667L29.875 28C29.6528 28.3612 29.34 28.6045 28.9367 28.73C28.5333 28.8556 28.1378 28.8484 27.75 28.7084L24.2083 27.2084C23.9028 27.4306 23.5833 27.6389 23.25 27.8334C22.9167 28.0278 22.5833 28.1945 22.25 28.3334L21.75 32.2084C21.6944 32.625 21.5139 32.9723 21.2083 33.25C20.9028 33.5278 20.5417 33.6667 20.125 33.6667ZM17.0833 22.8334C18.6944 22.8334 20.0694 22.2639 21.2083 21.125C22.3472 19.9862 22.9167 18.6112 22.9167 17C22.9167 15.3889 22.3472 14.0139 21.2083 12.875C20.0694 11.7362 18.6944 11.1667 17.0833 11.1667C15.4444 11.1667 14.0622 11.7362 12.9367 12.875C11.8111 14.0139 11.2489 15.3889 11.25 17C11.25 18.6112 11.8122 19.9862 12.9367 21.125C14.0611 22.2639 15.4433 22.8334 17.0833 22.8334ZM17.0833 19.5C16.3889 19.5 15.7983 19.2567 15.3117 18.77C14.825 18.2834 14.5822 17.6934 14.5833 17C14.5833 16.3056 14.8267 15.715 15.3133 15.2284C15.8 14.7417 16.39 14.4989 17.0833 14.5C17.7778 14.5 18.3683 14.7434 18.855 15.23C19.3417 15.7167 19.5844 16.3067 19.5833 17C19.5833 17.6945 19.34 18.285 18.8533 18.7717C18.3667 19.2584 17.7767 19.5012 17.0833 19.5ZM15.3333 30.3334H18.625L19.2083 25.9167C20.0694 25.6945 20.8683 25.3678 21.605 24.9367C22.3417 24.5056 23.015 23.985 23.625 23.375L27.75 25.0834L29.375 22.25L25.7917 19.5417C25.9305 19.1528 26.0278 18.7434 26.0833 18.3134C26.1389 17.8834 26.1667 17.4456 26.1667 17C26.1667 16.5556 26.1389 16.1184 26.0833 15.6884C26.0278 15.2584 25.9305 14.8484 25.7917 14.4584L29.375 11.75L27.75 8.91671L23.625 10.6667C23.0139 10.0278 22.3405 9.49337 21.605 9.06337C20.8694 8.63337 20.0705 8.30671 19.2083 8.08337L18.6667 3.66671H15.375L14.7917 8.08337C13.9305 8.3056 13.1322 8.63226 12.3967 9.06337C11.6611 9.49449 10.9872 10.015 10.375 10.625L6.24999 8.91671L4.62499 11.75L8.20833 14.4167C8.06944 14.8334 7.97221 15.25 7.91666 15.6667C7.8611 16.0834 7.83333 16.5278 7.83333 17C7.83333 17.4445 7.8611 17.875 7.91666 18.2917C7.97221 18.7084 8.06944 19.125 8.20833 19.5417L4.62499 22.25L6.24999 25.0834L10.375 23.3334C10.9861 23.9723 11.66 24.5073 12.3967 24.9384C13.1333 25.3695 13.9317 25.6956 14.7917 25.9167L15.3333 30.3334Z" fill="#00326D"/>
</svg>
